<svg width="19" height="19" viewBox="0 0 19 19" fill="none" xmlns="http://www.w3.org/2000/svg">
<path d="M13.586 0.585573C13.9611 0.210631 14.4697 0 15 0C15.5303 0 16.0389 0.210631 16.414 0.585573L18 2.17157C18.3749 2.54663 18.5856 3.05524 18.5856 3.58557C18.5856 4.1159 18.3749 4.62452 18 4.99957L10 12.9996C9.62501 13.3747 9.11639 13.5855 8.586 13.5856H7C6.46957 13.5856 5.96086 13.3749 5.58579 12.9998C5.21071 12.6247 5 12.116 5 11.5856V9.99957C5.00011 9.46918 5.2109 8.96056 5.586 8.58557L13.586 0.585573ZM13.414 3.58557L15 5.17157L16.586 3.58557L17.293 4.29257L15 1.99957L13.414 3.58557ZM13.586 6.58557L12 4.99957L7 9.99957V11.5856H8.586L13.586 6.58557ZM0 4.58557C0 3.78992 0.316071 3.02686 0.87868 2.46425C1.44129 1.90164 2.20435 1.58557 3 1.58557H6C6.26522 1.58557 6.51957 1.69093 6.70711 1.87847C6.89464 2.066 7 2.32036 7 2.58557C7 2.85079 6.89464 3.10514 6.70711 3.29268C6.51957 3.48022 6.26522 3.58557 6 3.58557H3C2.73478 3.58557 2.48043 3.69093 2.29289 3.87847C2.10536 4.066 2 4.32036 2 4.58557V15.5856C2 15.8508 2.10536 16.1051 2.29289 16.2927C2.48043 16.4802 2.73478 16.5856 3 16.5856H14C14.2652 16.5856 14.5196 16.4802 14.7071 16.2927C14.8946 16.1051 15 15.8508 15 15.5856V12.5856C15 12.3204 15.1054 12.066 15.2929 11.8785C15.4804 11.6909 15.7348 11.5856 16 11.5856C16.2652 11.5856 16.5196 11.6909 16.7071 11.8785C16.8946 12.066 17 12.3204 17 12.5856V15.5856C17 16.3812 16.6839 17.1443 16.1213 17.7069C15.5587 18.2695 14.7956 18.5856 14 18.5856H3C2.20435 18.5856 1.44129 18.2695 0.87868 17.7069C0.316071 17.1443 0 16.3812 0 15.5856V4.58557Z" fill="#DEDEDE"/>
</svg>
