<svg width="22" height="19" viewBox="0 0 22 19" fill="none" xmlns="http://www.w3.org/2000/svg">
<path d="M12.5138 13.75L17.0191 9.50003M17.0191 9.50003L12.5138 5.72225M17.0191 9.50003H1M5.33829 13.75V14.8125C5.33829 15.6579 5.6899 16.4686 6.31577 17.0664C6.94164 17.6642 7.79051 18 8.67562 18H17.6627C18.5478 18 19.3966 17.6642 20.0225 17.0664C20.6484 16.4686 21 15.6579 21 14.8125V4.1875C21 3.34212 20.6484 2.53137 20.0225 1.9336C19.3966 1.33583 18.5478 1 17.6627 1H8.67562C7.79051 1 6.94164 1.33583 6.31577 1.9336C5.6899 2.53137 5.33829 3.34212 5.33829 4.1875V5.25" stroke="#DEDEDE" stroke-width="2" stroke-linecap="round" stroke-linejoin="round"/>
</svg>
